<?xml version="1.0" encoding="UTF-8"?>
<svg width="33px" height="31px" viewBox="0 0 33 31" version="1.1" xmlns="http://www.w3.org/2000/svg" xmlns:xlink="http://www.w3.org/1999/xlink">
    <!-- Generator: Sketch 64 (93537) - https://sketch.com -->
    <title>Group 3</title>
    <desc>Created with Sketch.</desc>
    <defs>
        <polygon id="path-1" points="0 0 33 0 33 31 0 31"></polygon>
    </defs>
    <g id="Page-1" stroke="none" stroke-width="1" fill="none" fill-rule="evenodd">
        <g id="Apple-TV-Copy" transform="translate(-1211.000000, -81.000000)">
            <g id="Group-3" transform="translate(1211.000000, 81.000000)">
                <mask id="mask-2" fill="white">
                    <use xlink:href="#path-1"></use>
                </mask>
                <g id="Clip-2"></g>
                <path d="M24.1764694,29.2388817 C23.3978701,29.2388817 22.7647551,28.6070256 22.7647551,27.8298838 C22.7647551,27.0527421 23.3978701,26.4207386 24.1764694,26.4207386 C24.9550687,26.4207386 25.5881837,27.0527421 25.5881837,27.8298838 C25.5881837,28.6070256 24.9550687,29.2388817 24.1764694,29.2388817 M12.5296788,29.2388817 C11.7510795,29.2388817 11.1178907,28.6070256 11.1178907,27.8298838 C11.1178907,27.0527421 11.7510795,26.4207386 12.5296788,26.4207386 C13.3082781,26.4207386 13.9413931,27.0527421 13.9413931,27.8298838 C13.9413931,28.6070256 13.3082781,29.2388817 12.5296788,29.2388817 M32.8095942,5.91254094 C32.6206862,5.6423141 32.3167201,5.47528354 31.9865373,5.46120462 L11.5163108,4.58057176 C10.9289827,4.5548464 10.4381764,5.00750953 10.4130674,5.59093709 C10.3881062,6.17421724 10.8408059,6.66705321 11.4253277,6.69218887 L30.5096874,7.51326274 L26.7573012,19.1990626 L10.0587357,19.1990626 L7.04189427,2.8033106 C6.97557708,2.4439664 6.72840154,2.14418119 6.38751049,2.01068942 L1.44643662,0.0731791805 C0.90186761,-0.139626301 0.287362764,0.127430942 0.073493514,0.670243399 C-0.140006487,1.21342441 0.127403926,1.82722117 0.671677536,2.04069006 L5.06508071,3.76333089 L8.13516789,20.4469268 C8.22770179,20.948387 8.66563157,21.3127436 9.17674659,21.3127436 L9.68601535,21.3127436 L8.5231013,24.5368167 C8.42576716,24.8068961 8.46586765,25.1068287 8.63151293,25.3414529 C8.79693666,25.5762244 9.06597177,25.7157605 9.35317395,25.7157605 L10.1688459,25.7157605 C9.66341729,26.277222 9.35317395,27.0165497 9.35317395,27.8294416 C9.35317395,29.5778078 10.7784028,31 12.529605,31 C14.2808071,31 15.706036,29.5778078 15.706036,27.8294416 C15.706036,27.0166234 15.3957926,26.277222 14.8904379,25.7157605 L21.815858,25.7157605 C21.3101341,26.277222 21.0000384,27.0165497 21.0000384,27.8294416 C21.0000384,29.5778078 22.424898,31 24.1764694,31 C25.9281147,31 27.3529004,29.5778078 27.3529004,27.8294416 C27.3529004,27.0166234 27.0427309,26.277222 26.5374501,25.7157605 L27.5294016,25.7157605 C28.0168108,25.7157605 28.41176,25.321477 28.41176,24.8352014 C28.41176,24.3486309 28.016737,23.9544948 27.5294016,23.9544948 L10.6086219,23.9544948 L11.561433,21.3124488 L27.5293278,21.3124488 C27.9897818,21.3124488 28.3972116,21.0154646 28.5374525,20.5782809 L32.9491704,6.83931729 C33.0504925,6.52574801 32.9985022,6.18291521 32.8095942,5.91254094" id="Fill-1" fill="#FFFFFF" mask="url(#mask-2)"></path>
            </g>
        </g>
    </g>
</svg>