<?xml version="1.0" encoding="UTF-8"?>
<svg width="26px" height="26px" viewBox="0 0 26 26" version="1.1" xmlns="http://www.w3.org/2000/svg" xmlns:xlink="http://www.w3.org/1999/xlink">
    <!-- Generator: Sketch 64 (93537) - https://sketch.com -->
    <title>Group 6</title>
    <desc>Created with Sketch.</desc>
    <defs>
        <polygon id="path-1" points="0.00223850932 0.00226832298 8 0.00226832298 8 7.99999503 0.00223850932 7.99999503"></polygon>
    </defs>
    <g id="Page-1" stroke="none" stroke-width="1" fill="none" fill-rule="evenodd">
        <g id="Apple-TV-Copy" transform="translate(-1085.000000, -82.000000)">
            <g id="Group-6" transform="translate(1085.000000, 82.000000)">
                <path d="M11,19.9692781 C6.05440539,19.9692781 2.03077073,15.9455946 2.03077073,11 C2.03077073,6.05440539 6.05440539,2.03077073 11,2.03077073 C15.9455946,2.03077073 19.9692293,6.0543566 19.9692293,10.9999512 C19.9692293,15.9455458 15.9455946,19.9692781 11,19.9692781 M11,0 C4.9347641,0 0,4.9347641 0,10.9999512 C0,17.0655286 4.9347641,22 11,22 C17.0655774,22 22,17.0655286 22,10.9999512 C22,4.9347641 17.0655774,0 11,0" id="Fill-1" fill="#FFFFFF"></path>
                <g id="Group-5" transform="translate(18.000000, 18.000000)">
                    <mask id="mask-2" fill="white">
                        <use xlink:href="#path-1"></use>
                    </mask>
                    <g id="Clip-4"></g>
                    <path d="M7.6970087,6.23462857 L1.76766708,0.305286957 C1.36364224,-0.0987378882 0.709331677,-0.0987378882 0.305257143,0.305286957 C-0.0987677019,0.708963975 -0.0987677019,1.36401988 0.305257143,1.76769689 L6.23459876,7.69698882 C6.43663602,7.8989764 6.70108323,7.99999503 6.96582857,7.99999503 C7.2301764,7.99999503 7.49497143,7.8989764 7.6970087,7.69698882 C8.10103354,7.2933118 8.10103354,6.63830559 7.6970087,6.23462857" id="Fill-3" fill="#FFFFFF" mask="url(#mask-2)"></path>
                </g>
            </g>
        </g>
    </g>
</svg>