<?xml version="1.0" encoding="UTF-8"?>
<svg width="20px" height="18px" viewBox="0 0 20 18" version="1.1" xmlns="http://www.w3.org/2000/svg" xmlns:xlink="http://www.w3.org/1999/xlink">
    <!-- Generator: Sketch 64 (93537) - https://sketch.com -->
    <title>phone-call (6)</title>
    <desc>Created with Sketch.</desc>
    <g id="Page-1" stroke="none" stroke-width="1" fill="none" fill-rule="evenodd">
        <g id="2.0" transform="translate(-1020.000000, -2621.000000)" fill="#000000" fill-rule="nonzero">
            <g id="Group-30" transform="translate(-1.000000, 2446.000000)">
                <g id="Group-27" transform="translate(232.000000, 39.000000)">
                    <g id="phone-call-(6)" transform="translate(789.481928, 136.000000)">
                        <path d="M18.2005447,13.2009339 L15.5895392,10.6907393 C14.6570372,9.79424125 13.0717838,10.1528755 12.698783,11.3182879 C12.4190324,12.1251712 11.4865304,12.5734202 10.6472786,12.3940856 C8.78227462,11.9458366 6.26451924,9.61494163 5.79826825,7.73229572 C5.51851765,6.92541245 6.07801885,6.0289144 6.91727064,5.76 C8.12952323,5.40140078 8.50252403,3.87735409 7.57002203,2.98085603 L4.95901645,0.470661479 C4.21301486,-0.15688716 3.09401247,-0.15688716 2.44126108,0.470661479 L0.66950729,2.17400778 C-1.1022465,3.96700389 0.856007688,8.71844358 5.23876705,12.9319844 C9.62152642,17.1455253 14.563787,19.117856 16.428791,17.3248249 L18.2005447,15.6214786 C18.8533326,14.9042802 18.8533326,13.8284825 18.2005447,13.2009339 Z" id="Path"></path>
                    </g>
                </g>
            </g>
        </g>
    </g>
</svg>