<?xml version="1.0" encoding="UTF-8"?>
<svg width="14px" height="18px" viewBox="0 0 14 18" version="1.1" xmlns="http://www.w3.org/2000/svg" xmlns:xlink="http://www.w3.org/1999/xlink">
    <!-- Generator: Sketch 64 (93537) - https://sketch.com -->
    <title>location-pin</title>
    <desc>Created with Sketch.</desc>
    <g id="Page-1" stroke="none" stroke-width="1" fill="none" fill-rule="evenodd">
        <g id="2.0" transform="translate(-1019.000000, -2542.000000)" fill="#000000" fill-rule="nonzero">
            <g id="Group-30" transform="translate(-1.000000, 2446.000000)">
                <g id="Group-27" transform="translate(232.000000, 39.000000)">
                    <g id="location-pin" transform="translate(788.441767, 57.000000)">
                        <path d="M6.76104418,0 C3.03345515,0 0,2.93655556 0,6.54694444 C0,11.6768889 6.12550602,16.9736667 6.38618184,17.1961111 C6.49360732,17.2878333 6.62732575,17.3333333 6.76104418,17.3333333 C6.89476261,17.3333333 7.02848104,17.2878333 7.13590651,17.1968333 C7.39658233,16.9736667 13.5220884,11.6768889 13.5220884,6.54694444 C13.5220884,2.93655556 10.4886332,0 6.76104418,0 Z M6.76104418,10.1111111 C4.68991098,10.1111111 3.00490852,8.49116667 3.00490852,6.5 C3.00490852,4.50883333 4.68991098,2.88888889 6.76104418,2.88888889 C8.83217738,2.88888889 10.5171798,4.50883333 10.5171798,6.5 C10.5171798,8.49116667 8.83217738,10.1111111 6.76104418,10.1111111 Z" id="Shape"></path>
                    </g>
                </g>
            </g>
        </g>
    </g>
</svg>