<?xml version="1.0" encoding="UTF-8"?>
<svg width="24px" height="30px" viewBox="0 0 24 30" version="1.1" xmlns="http://www.w3.org/2000/svg" xmlns:xlink="http://www.w3.org/1999/xlink">
    <!-- Generator: Sketch 64 (93537) - https://sketch.com -->
    <title>apple (6)</title>
    <desc>Created with Sketch.</desc>
    <g id="Web" stroke="none" stroke-width="1" fill="none" fill-rule="evenodd">
        <g id="Home" transform="translate(-1174.000000, -1495.000000)" fill="#F9F9F9" fill-rule="nonzero">
            <g id="Group-7" transform="translate(-3.000000, 1426.000000)">
                <g id="apple-(6)" transform="translate(1177.000000, 69.000000)">
                    <path d="M23.9017052,20.6388663 C23.8038773,20.482181 23.6448201,20.3776044 23.4662783,20.3526282 C21.1176558,20.0348254 19.4623859,17.8048753 19.7691679,15.3718812 C19.9858696,13.6532545 21.1475476,12.2221238 22.7447682,11.7060087 C23.0691269,11.5983175 23.2478421,11.2386482 23.1438855,10.9026373 C23.1276964,10.850349 23.1050896,10.8003966 23.0765854,10.7540379 C21.9988012,8.73905084 20.0824255,7.35326061 17.8849969,7 C16.7776677,7.05474401 15.6864119,7.29689943 14.6545929,7.71682316 C13.9135404,8.02576148 13.1310324,8.21496973 12.3344746,8.27773968 C11.5379169,8.21496973 10.7554089,8.02576148 10.0143563,7.71682316 C8.98253737,7.29689943 7.89128157,7.05474401 6.78395238,7 C4.48112164,7 0,10.3822098 0,16.5831973 C0,22.4762048 4.14930448,29.9996735 7.40069635,29.9996735 C8.64129589,30.0111734 9.8669784,29.7187062 10.9777189,29.1461101 C11.3960317,28.9071291 11.8584017,28.7625427 12.3345325,28.721874 C12.8106054,28.7625427 13.2730333,28.9071291 13.6913461,29.1461101 C14.8020865,29.7187062 16.027769,30.0111734 17.2683686,29.9996735 C19.8462971,29.9996735 22.7559849,25.4150719 23.9746136,21.1665411 C24.0256091,20.9881139 23.9990128,20.7953719 23.9017052,20.6388663 Z" id="Path"></path>
                    <path d="M11.5833014,8 C15.1255479,7.9955625 17.9961718,4.7149375 18,0.6666875 C18,0.2985 17.7388651,0 17.4166986,0 C13.8744521,0.0044375 11.0038282,3.2850625 11,7.3333125 C11,7.7015 11.2611349,8 11.5833014,8 Z" id="Path"></path>
                </g>
            </g>
        </g>
    </g>
</svg>