<?xml version="1.0" encoding="UTF-8"?>
<svg width="22px" height="22px" viewBox="0 0 22 22" version="1.1" xmlns="http://www.w3.org/2000/svg" xmlns:xlink="http://www.w3.org/1999/xlink">
    <!-- Generator: Sketch 64 (93537) - https://sketch.com -->
    <title>cancel (3)</title>
    <desc>Created with Sketch.</desc>
    <g id="Web" stroke="none" stroke-width="1" fill="none" fill-rule="evenodd">
        <g id="Login" transform="translate(-937.000000, -167.000000)" fill="#C32F2C" fill-rule="nonzero">
            <g id="cancel-(3)" transform="translate(937.000000, 167.000000)">
                <path d="M18.772875,3.21702734 C14.482875,-1.07207031 7.506125,-1.07207031 3.216125,3.21702734 C-1.07202734,7.506125 -1.07202734,14.4846797 3.216125,18.7737773 C5.361125,20.917875 8.17802734,21.9894297 10.9949727,21.9894297 C13.811918,21.9894297 16.627875,20.917832 18.772875,18.7737773 C23.0619727,14.4847227 23.0619727,7.506125 18.772875,3.21702734 Z M15.5315273,14.2362773 C15.8899297,14.5946797 15.8899297,15.1740273 15.5315273,15.5324297 C15.3527773,15.7111797 15.118125,15.8010273 14.8834297,15.8010273 C14.6487773,15.8010273 14.414082,15.7111797 14.235332,15.5324297 L10.9949297,12.291082 L7.75542969,15.5314844 C7.57577734,15.7102344 7.34108203,15.800082 7.10733203,15.800082 C6.87267969,15.800082 6.63798437,15.7102344 6.45923437,15.5314844 C6.10083203,15.173082 6.10083203,14.592832 6.45923437,14.235332 L9.69873437,10.9949297 L6.45833203,7.75452734 C6.09992969,7.396125 6.09992969,6.815875 6.45833203,6.458375 C6.81583203,6.09997266 7.39608203,6.09997266 7.75448437,6.458375 L10.9948867,9.69877734 L14.2352891,6.458375 C14.5936914,6.09997266 15.1730391,6.09997266 15.5314414,6.458375 C15.8898437,6.815875 15.8898437,7.396125 15.5314414,7.75452734 L12.2910391,10.9949297 L15.5315273,14.2362773 Z" id="Shape"></path>
            </g>
        </g>
    </g>
</svg>