<?xml version="1.0" encoding="UTF-8"?>
<svg width="18px" height="11px" viewBox="0 0 18 11" version="1.1" xmlns="http://www.w3.org/2000/svg" xmlns:xlink="http://www.w3.org/1999/xlink">
    <!-- Generator: Sketch 64 (93537) - https://sketch.com -->
    <title>right-arrow (10)</title>
    <desc>Created with Sketch.</desc>
    <g id="Web" stroke="none" stroke-width="1" fill="none" fill-rule="evenodd">
        <g id="Home" transform="translate(-427.000000, -582.000000)" fill="#3C4464" fill-rule="nonzero">
            <g id="Group-2" transform="translate(216.000000, 551.000000)">
                <g id="right-arrow-(10)" transform="translate(220.000000, 36.500000) rotate(-270.000000) translate(-220.000000, -36.500000) translate(215.000000, 28.000000)">
                    <path d="M9.71303448,7.82082759 L2.16310345,0.271034483 C1.98848276,0.0962758621 1.75537931,0 1.50682759,0 C1.25827586,0 1.02517241,0.0962758621 0.850551724,0.271034483 L0.294551724,0.826896552 C-0.0672413793,1.18910345 -0.0672413793,1.7777931 0.294551724,2.13944828 L6.63441379,8.47931034 L0.287517241,14.8262069 C0.112896552,15.0009655 0.0164827586,15.233931 0.0164827586,15.4823448 C0.0164827586,15.7310345 0.112896552,15.964 0.287517241,16.1388966 L0.843517241,16.6946207 C1.01827586,16.8693793 1.25124138,16.9656552 1.4997931,16.9656552 C1.74834483,16.9656552 1.98144828,16.8693793 2.15606897,16.6946207 L9.71303448,9.13793103 C9.88806897,8.96262069 9.9842069,8.72855172 9.98365753,8.47972414 C9.9842069,8.22993103 9.88806897,7.996 9.71303448,7.82082759 Z" id="Path"></path>
                </g>
            </g>
        </g>
    </g>
</svg>