<?xml version="1.0" encoding="UTF-8"?>
<svg width="26px" height="30px" viewBox="0 0 26 30" version="1.1" xmlns="http://www.w3.org/2000/svg" xmlns:xlink="http://www.w3.org/1999/xlink">
    <!-- Generator: Sketch 64 (93537) - https://sketch.com -->
    <title>google-play (1)</title>
    <desc>Created with Sketch.</desc>
    <g id="Web" stroke="none" stroke-width="1" fill="none" fill-rule="evenodd">
        <g id="Home" transform="translate(-939.000000, -1495.000000)" fill-rule="nonzero">
            <g id="Group-7" transform="translate(-3.000000, 1426.000000)">
                <g id="google-play-(1)" transform="translate(942.000000, 69.000000)">
                    <path d="M24.7452486,12.8208324 L19.7895844,10 L13,15 L19.78947,20 L24.7620138,17.1694676 C25.5373287,16.7052222 26,15.893977 26,15.0001128 C26,14.1062486 25.5372715,13.2950598 24.7452486,12.8208324 Z" id="Path" fill="#FF9100"></path>
                    <path d="M14,15.5221496 C13.9928627,15.5321199 8.23996078,23.5754763 8.23529412,23.5819839 L0.741176471,30 C0.279945098,29.4984395 0,28.8179507 0,28.0655801 L0,2.93430051 C0,2.18210902 0.279945098,1.50144109 0.741176471,1 L8.23529412,7.46231539 C8.23996078,7.46882296 13.9928627,15.5121793 14,15.5221496 Z" id="Path" fill="#25D9F8"></path>
                    <polygon id="Path" fill="#00C0F1" points="14 15.0000517 13 17 13 13"></polygon>
                    <path d="M20,9.79680697 L14.7676619,16 C5.30166338,6.105508 0.626168241,1.105508 0.741176471,1 C0.913688815,0.841737994 1.34513974,0.466262705 1.53496659,0.343215607 C2.36324443,-0.131336035 3.34695021,-0.113816472 4.15808611,0.396008672 L13.1661757,5.7890458 L20,9.79680697 Z" id="Path" fill="#7FE881"></path>
                    <polygon id="Path" fill="#5BC980" points="20 9.79680697 14.7676619 16 13 14.0916031 13 5.68713379"></polygon>
                    <path d="M19.78947,20 L13.1661757,24.2326125 L4.14082912,29.61243 C3.72666144,29.8590441 3.27797978,30 2.81198361,30 C2.38055894,30 1.94913427,29.8766636 1.53496659,29.6476102 C1.34513974,29.5242738 1.17251234,29.4009961 1,29.2424207 L14.8918744,15 L19.78947,20 Z" id="Path" fill="#FF637B"></path>
                    <polygon id="Path" fill="#E63950" points="19.78947 20 13 24.3345947 13 17 15.5881348 15"></polygon>
                </g>
            </g>
        </g>
    </g>
</svg>