<?xml version="1.0" encoding="UTF-8"?>
<svg width="48px" height="48px" viewBox="0 0 48 48" version="1.1" xmlns="http://www.w3.org/2000/svg" xmlns:xlink="http://www.w3.org/1999/xlink">
    <!-- Generator: Sketch 64 (93537) - https://sketch.com -->
    <title>Group 4</title>
    <desc>Created with Sketch.</desc>
    <g id="Web" stroke="none" stroke-width="1" fill="none" fill-rule="evenodd">
        <g id="Home" transform="translate(-1316.000000, -39.000000)">
            <g id="Group-6" transform="translate(1316.000000, 39.000000)">
                <g id="Group-4">
                    <g id="translate-(2)" transform="translate(12.000000, 12.000000)" fill="#4B504F" fill-rule="nonzero">
                        <path d="M21.4141846,9.79064944 L12.3766479,9.79064944 C10.9508057,9.79064944 9.79083253,10.9506225 9.79083253,12.3764648 L9.79083253,17.2866211 L7.4492798,18.9591065 C7.26452634,19.0909424 7.1548462,19.3040771 7.1548462,19.5311279 C7.1548462,19.7583618 7.26452634,19.9714966 7.4492798,20.1033325 L9.81903075,21.7959595 C10.0041504,23.0414429 11.0806275,24 12.3766479,24 L21.4141846,24 C22.8400268,24 24,22.8400268 24,21.4140015 L24,12.3764648 C24,10.9506225 22.8400268,9.79064944 21.4141846,9.79064944 Z M18.3753662,19.6706543 C18.2096558,19.6706543 18.0816651,19.618103 18.0441284,19.4749146 L17.7577515,18.4731445 L16.0328979,18.4731445 L15.7468872,19.4749146 C15.7091675,19.618103 15.5811768,19.6706543 15.4154663,19.6706543 C15.1517944,19.6706543 14.7978516,19.505127 14.7978516,19.2641602 C14.7978516,19.2489624 14.8053589,19.2189331 14.8128662,19.1887207 L16.2665405,14.451416 C16.3342896,14.2254638 16.6129761,14.119812 16.8916626,14.119812 C17.1778565,14.119812 17.456543,14.2254638 17.524292,14.451416 L18.9779663,19.1887207 C18.9854737,19.2189331 18.992981,19.2414551 18.992981,19.2641602 C18.992981,19.4974365 18.6390381,19.6706543 18.3753662,19.6706543 L18.3753662,19.6706543 Z" id="Shape"></path>
                        <polygon id="Path" points="16.2363281 17.704834 17.5469971 17.704834 16.8914795 15.3927612"></polygon>
                        <path d="M8.38458253,12.3764648 C8.38458253,11.432373 8.71472166,10.5644531 9.26458739,9.880188 C8.46240234,9.880188 7.71807862,9.62915039 7.10449219,9.20269777 C6.49090575,9.62933348 5.74658203,9.880188 4.94421384,9.880188 C4.72540284,9.880188 4.54779052,9.70257567 4.54779052,9.48358153 C4.54779052,9.26458739 4.72540284,9.0871582 4.94421384,9.0871582 C5.50616456,9.0871582 6.03204347,8.93151853 6.48229978,8.66198728 C5.93920898,8.07586669 5.578125,7.3190918 5.4907837,6.48156741 L4.94439698,6.48156741 C4.72540284,6.48156741 4.54779052,6.30413817 4.54779052,6.08514403 C4.54779052,5.86614989 4.72540284,5.68853761 4.94439698,5.68853761 L6.70825195,5.68853761 L6.70825195,4.72576903 C6.70825195,4.5065918 6.88568114,4.32916261 7.10467528,4.32916261 C7.32366942,4.32916261 7.50109866,4.5065918 7.50109866,4.72576903 L7.50109866,5.68853761 L9.26495362,5.68853761 C9.48394777,5.68853761 9.66156005,5.86614989 9.66156005,6.08514403 C9.66156005,6.30413817 9.48394777,6.48156741 9.26495362,6.48156741 L8.71856691,6.48156741 C8.63122556,7.3190918 8.27014162,8.07586669 7.72705078,8.66198728 C8.177124,8.93188477 8.70318605,9.0871582 9.26495362,9.0871582 C9.47424319,9.0871582 9.64526367,9.24938962 9.6600952,9.45501708 C10.373291,8.79144286 11.328186,8.38439944 12.376831,8.38439944 L14.2093506,8.38439944 L14.2093506,6.71337891 L16.5509033,5.04089353 C16.7354737,4.90905759 16.8451538,4.69592287 16.8451538,4.46887209 C16.8451538,4.24163817 16.7354737,4.02850341 16.5509033,3.89666747 L14.1811523,2.20404052 C13.9958496,0.958557141 12.9193725,-8.8817842e-14 11.6233521,-8.8817842e-14 L2.58599855,-8.8817842e-14 C1.15997316,-8.8817842e-14 -4.4408921e-14,1.15997316 -4.4408921e-14,2.58581541 L-4.4408921e-14,11.6235352 C-4.4408921e-14,13.0493775 1.15997316,14.2093506 2.58599855,14.2093506 L8.38458253,14.2093506 L8.38458253,12.3764648 Z" id="Path"></path>
                        <path d="M7.10449219,8.16650391 C7.53845212,7.71624755 7.83306886,7.1315918 7.9193115,6.4817505 L6.28985597,6.4817505 C6.37609866,7.1315918 6.67089844,7.71624755 7.10449219,8.16650391 Z" id="Path"></path>
                    </g>
                    <circle id="Oval" stroke="#979797" opacity="0.190685454" cx="24" cy="24" r="23.5"></circle>
                </g>
            </g>
        </g>
    </g>
</svg>