<?xml version="1.0" encoding="UTF-8"?>
<svg width="12px" height="16px" viewBox="0 0 12 16" version="1.1" xmlns="http://www.w3.org/2000/svg" xmlns:xlink="http://www.w3.org/1999/xlink">
    <!-- Generator: Sketch 64 (93537) - https://sketch.com -->
    <title>Group 3 Copy 2</title>
    <desc>Created with Sketch.</desc>
    <defs>
        <polygon id="path-1" points="0 6.12244898e-06 11.9974485 6.12244898e-06 11.9974485 15.6948933 0 15.6948933"></polygon>
    </defs>
    <g id="Web" stroke="none" stroke-width="1" fill="none" fill-rule="evenodd">
        <g id="Home" transform="translate(-240.000000, -579.000000)">
            <g id="Group-2" transform="translate(216.000000, 551.000000)">
                <g id="Group-3-Copy-2" transform="translate(24.000000, 28.000000)">
                    <mask id="mask-2" fill="white">
                        <use xlink:href="#path-1"></use>
                    </mask>
                    <g id="Clip-2"></g>
                    <path d="M7.83412049,5.84342449 C7.83381429,4.8391898 7.01175306,4.01474082 6.00669184,4.01065438 C4.99526327,4.00659796 4.1648449,4.83138367 4.16248286,5.8424449 C4.16016122,6.85393469 4.98764082,7.68337347 5.99805918,7.68230308 C7.01279388,7.68123061 7.83442653,6.85834286 7.83412049,5.84342449 M5.59116122,6.12244898e-06 L6.39831429,6.12244898e-06 C6.4176,6.12244898e-06 6.43682449,0.00202653061 6.45568163,0.00612857143 C6.48999796,0.0135979592 6.52428367,0.0211285714 6.55869184,0.0281081633 C6.98239592,0.11397551 7.4191102,0.159802041 7.82750816,0.292689796 C9.29257959,0.769383673 10.4248653,1.67963878 11.1957122,3.01690408 C11.9005592,4.23967959 12.1389367,5.55686327 11.9176408,6.95210816 C11.757998,7.95879184 11.3502122,8.86013878 10.740998,9.67439388 C9.57693673,11.2301388 8.41449796,12.7871388 7.25288571,14.3446898 C6.98407959,14.705149 6.73817143,15.1154143 6.42378367,15.4377612 C6.28492653,15.5801082 6.08965102,15.7301388 5.87750816,15.6875265 C5.74933469,15.661751 5.64433469,15.5690878 5.5641,15.4658633 C5.19372245,14.9892 4.85325306,14.489302 4.49215102,14.005598 C3.95463061,13.2855367 3.41701837,12.5654755 2.87916122,11.8456286 C2.47578367,11.305751 2.07225306,10.7659653 1.66847755,10.2263327 C1.23776327,9.65063878 0.798844898,9.0817102 0.512344898,8.41338367 C-0.00803265306,7.19942449 -0.140920408,5.94952653 0.154640816,4.65940408 C0.414079592,3.52696531 0.960385714,2.54890408 1.78636531,1.73599592 C2.71067143,0.826322449 3.81886531,0.267679592 5.10519184,0.0721591837 C5.2533551,0.0496285714 5.40136531,0.0262714286 5.54943673,0.00322040816 C5.56324286,0.00107755102 5.57720204,6.12244898e-06 5.59116122,6.12244898e-06" id="Fill-1" fill="#C32F2C" mask="url(#mask-2)"></path>
                </g>
            </g>
        </g>
    </g>
</svg>