<?xml version="1.0" encoding="UTF-8"?>
<svg width="20px" height="20px" viewBox="0 0 20 20" version="1.1" xmlns="http://www.w3.org/2000/svg" xmlns:xlink="http://www.w3.org/1999/xlink">
    <!-- Generator: Sketch 64 (93537) - https://sketch.com -->
    <title>loupe (3)</title>
    <desc>Created with Sketch.</desc>
    <g id="Web" stroke="none" stroke-width="1" fill="none" fill-rule="evenodd">
        <g id="Home" transform="translate(-497.000000, -577.000000)" fill="#4B504F" fill-rule="nonzero">
            <g id="Group-2" transform="translate(216.000000, 551.000000)">
                <g id="loupe-(3)" transform="translate(281.000000, 26.000000)">
                    <path d="M19.2998051,15.7692008 L16.0062378,12.4756335 C16.6050682,11.2779727 17.0042885,9.88070175 17.0042885,8.4834308 C17.0042885,3.79259259 13.2116959,0 8.5208577,0 C3.83001949,0 0.0374269006,3.79259259 0.0374269006,8.4834308 C0.0374269006,13.174269 3.83001949,16.9668616 8.5208577,16.9668616 C9.91812865,16.9668616 11.3153996,16.5676413 12.5130604,15.9688109 L15.8066277,19.2623782 C16.8046784,20.2604288 18.3017544,20.2604288 19.2998051,19.2623782 C20.1980507,18.2643275 20.1980507,16.7672515 19.2998051,15.7692008 Z M8.5208577,14.9707602 C4.92787524,14.9707602 2.03352827,12.0764133 2.03352827,8.4834308 C2.03352827,4.89044834 4.92787524,1.99610136 8.5208577,1.99610136 C12.1138402,1.99610136 15.0081871,4.89044834 15.0081871,8.4834308 C15.0081871,12.0764133 12.1138402,14.9707602 8.5208577,14.9707602 Z" id="Shape"></path>
                </g>
            </g>
        </g>
    </g>
</svg>